# xmcd
#
# Track frame offsets: 
#        150
#        4808
#        13711
#        22154
#        33310
#        45011
#        58980
#        70869
#        82245
#        86017
#        96946
#        108754
#        123468
#        133713
#        144881
#        150038
#        154782
#        164576
#        175974
#        186872
#        195709
#        200711
#        209666
#        222245
#        229735
#        240369
#        252679
#        264741
#        272478
#        276013
#        279015
#        284696
#        291663
#
# Disc length: 3986 seconds
#
# Revision: 0
# Processed by: cddbd v1.5.2PL0 Copyright (c) Steve Scherf et al.
# Submitted via: ExactAudioCopy v0.95b4
#
DISCID=ee0f9021
DTITLE=Jim Reeves - Pretend You Don't See Her
DYEAR=2003
DGENRE=Country
TTITLE0=Intro To Show A
TTITLE1=Put A Light In Your Window
TTITLE2=Take A Chance
TTITLE3=You Are So Beautiful
TTITLE4=Bye Baby Bye
TTITLE5=Am I Losing You
TTITLE6=Very Special Love
TTITLE7=No More Tears To Cry
TTITLE8=Footprints On The Sands Of Time
TTITLE9=Need Me
TTITLE10=Swedish Polka
TTITLE11=In The Still Of The Night
TTITLE12=Love Me Forever
TTITLE13=Gonna Find Me A Bluebird
TTITLE14=Outro
TTITLE15=Intro To Show B
TTITLE16=Everywhere You Go
TTITLE17=All The Way
TTITLE18=Moonglow/Picnic
TTITLE19=One Blade Of Grass
TTITLE20=Why?
TTITLE21=Pretend You Don't See Her
TTITLE22=Kisses Sweeter Than Wine
TTITLE23=Ca C'est L'Amour
TTITLE24=I Get The Blues When It Rains
TTITLE25=Chi Chi Chihuahua
TTITLE26=Long Last Look
TTITLE27=Rock And Roll Polka
TTITLE28=Outro
TTITLE29=The Old Arm Chair
TTITLE30=Housewife's Prayer
TTITLE31=Old Pard
TTITLE32=You Belong To Me
EXTD=
EXTT0=
EXTT1=
EXTT2=
EXTT3=
EXTT4=
EXTT5=
EXTT6=
EXTT7=
EXTT8=
EXTT9=
EXTT10=
EXTT11=
EXTT12=
EXTT13=
EXTT14=
EXTT15=
EXTT16=
EXTT17=
EXTT18=
EXTT19=
EXTT20=
EXTT21=
EXTT22=
EXTT23=
EXTT24=
EXTT25=
EXTT26=
EXTT27=
EXTT28=
EXTT29=
EXTT30=
EXTT31=
EXTT32=
PLAYORDER=
